<svg width="23" height="25" viewBox="0 0 23 25" fill="none" xmlns="http://www.w3.org/2000/svg">
<path d="M9.24616 3.58389C7.23673 1.40084 3.30453 1.14771 0.522221 1.14771C0.233817 1.14771 0 1.40185 0 1.71534C0 4.7407 0.232887 9.01483 2.24129 11.199C3.18424 12.1119 4.41682 12.5902 5.67844 12.533C6.97927 12.5887 8.25209 12.1128 9.24616 11.199C10.7428 9.57107 11.0175 5.50927 9.24616 3.58389Z" fill="#4CAF50"/>
<path d="M22.4778 3.39316C19.6944 3.39316 15.7622 3.6463 13.7528 5.82934C11.9772 7.75924 12.2561 11.8154 13.7528 13.4433C14.7471 14.3572 16.0203 14.8331 17.3215 14.7772C18.5831 14.8344 19.8156 14.3561 20.7586 13.4433C22.7681 11.2592 22.9999 6.98504 22.9999 3.95962C22.9994 3.64662 22.7658 3.39316 22.4778 3.39316Z" fill="#4CAF50"/>
<path d="M10.9663 23.8523C10.6779 23.8523 10.4441 23.5981 10.4441 23.2847C10.4441 11.2456 6.3824 8.22474 4.85339 7.08836C4.66897 6.96038 4.49434 6.81649 4.33116 6.65812C4.13079 6.43266 4.13656 6.0733 4.34399 5.8555C4.54638 5.64302 4.86719 5.64302 5.06958 5.8555C5.18752 5.96389 5.31245 6.06293 5.44346 6.15179C6.80118 7.16099 9.99918 9.53933 11.1052 17.3406C11.9599 13.262 14.4936 9.8377 17.9753 8.05557C18.242 7.91924 18.5602 8.02843 18.7064 8.30647C18.8385 8.5595 18.7569 8.88097 18.5241 9.02459C18.5154 9.02997 18.5065 9.03508 18.4975 9.03987L18.4129 9.08302C12.6875 12.0085 11.4854 18.4203 11.4854 23.2847C11.4854 23.5968 11.2535 23.8504 10.9663 23.8523Z" fill="#388E3C"/>
</svg>
